<?xml version="1.0" encoding="UTF-8" standalone="no"?>
<!DOCTYPE svg PUBLIC "-//W3C//DTD SVG 1.1//EN"
 "http://www.w3.org/Graphics/SVG/1.1/DTD/svg11.dtd">
<!-- Generated by graphviz version 2.38.0 (20140413.2041)
 -->
<!-- Title: rpmdep Pages: 1 -->
<svg width="620pt" height="105pt"
 viewBox="0.00 0.00 620.00 105.00" xmlns="http://www.w3.org/2000/svg" xmlns:xlink="http://www.w3.org/1999/xlink">
<g id="graph0" class="graph" transform="scale(1 1) rotate(0) translate(4 101)">
<title>rpmdep</title>
<polygon fill="white" stroke="none" points="-4,4 -4,-101 616,-101 616,4 -4,4"/>
<!-- bash -->
<g id="node1" class="node"><title>bash</title>
<polygon fill="lightgray" stroke="lightgray" points="0,-52.5 0,-70.5 54,-70.5 54,-52.5 0,-52.5"/>
<text text-anchor="middle" x="27" y="-59.3" font-family="Helvetica,sans-Serif" font-size="9.00">bash</text>
</g>
<!-- glibc -->
<g id="node2" class="node"><title>glibc</title>
<polygon fill="lightgray" stroke="lightgray" points="96,-52.5 96,-70.5 150,-70.5 150,-52.5 96,-52.5"/>
<text text-anchor="middle" x="123" y="-59.3" font-family="Helvetica,sans-Serif" font-size="9.00">glibc</text>
</g>
<!-- bash&#45;&gt;glibc -->
<g id="edge1" class="edge"><title>bash&#45;&gt;glibc</title>
<path fill="none" stroke="black" d="M54.1842,-59.4589C63.9625,-59.2492 75.2472,-59.1974 85.7706,-59.3034"/>
<polygon fill="black" stroke="black" points="85.9029,-62.8057 95.9562,-59.4619 86.0119,-55.8066 85.9029,-62.8057"/>
</g>
<!-- libreadline6 -->
<g id="node3" class="node"><title>libreadline6</title>
<polygon fill="lightgray" stroke="lightgray" points="90,-26.5 90,-44.5 156,-44.5 156,-26.5 90,-26.5"/>
<text text-anchor="middle" x="123" y="-33.3" font-family="Helvetica,sans-Serif" font-size="9.00">libreadline6</text>
</g>
<!-- bash&#45;&gt;libreadline6 -->
<g id="edge3" class="edge"><title>bash&#45;&gt;libreadline6</title>
<path fill="none" stroke="black" d="M54.1842,-54.2576C62.2361,-52.0305 71.3093,-49.5208 80.1378,-47.0789"/>
<polygon fill="black" stroke="black" points="81.2289,-50.4086 89.934,-44.3693 79.3628,-43.6619 81.2289,-50.4086"/>
</g>
<!-- glibc&#45;&gt;bash -->
<g id="edge2" class="edge"><title>glibc&#45;&gt;bash</title>
<path fill="none" stroke="black" d="M95.9562,-64.2175C86.1924,-64.499 74.9113,-64.5701 64.3807,-64.4309"/>
<polygon fill="black" stroke="black" points="64.254,-60.9276 54.1842,-64.2215 64.1102,-67.9262 64.254,-60.9276"/>
</g>
<!-- dash_static -->
<g id="node11" class="node"><title>dash_static</title>
<polygon fill="lightgray" stroke="lightgray" points="196,-78.5 196,-96.5 261,-96.5 261,-78.5 196,-78.5"/>
<text text-anchor="middle" x="228.5" y="-85.3" font-family="Helvetica,sans-Serif" font-size="9.00">dash_static</text>
</g>
<!-- glibc&#45;&gt;dash_static -->
<g id="edge11" class="edge"><title>glibc&#45;&gt;dash_static</title>
<path fill="none" stroke="black" d="M150.117,-68.0609C160.972,-70.7875 173.838,-74.0198 185.933,-77.058"/>
<polygon fill="black" stroke="black" points="185.298,-80.5071 195.849,-79.549 187.003,-73.718 185.298,-80.5071"/>
</g>
<!-- grep -->
<g id="node12" class="node"><title>grep</title>
<polygon fill="lightgray" stroke="lightgray" points="201.5,-52.5 201.5,-70.5 255.5,-70.5 255.5,-52.5 201.5,-52.5"/>
<text text-anchor="middle" x="228.5" y="-59.3" font-family="Helvetica,sans-Serif" font-size="9.00">grep</text>
</g>
<!-- glibc&#45;&gt;grep -->
<g id="edge12" class="edge"><title>glibc&#45;&gt;grep</title>
<path fill="none" stroke="black" d="M150.117,-61.5C162.62,-61.5 177.794,-61.5 191.381,-61.5"/>
<polygon fill="black" stroke="black" points="191.391,-65.0001 201.391,-61.5 191.391,-58.0001 191.391,-65.0001"/>
</g>
<!-- libncursesw6 -->
<g id="node4" class="node"><title>libncursesw6</title>
<polygon fill="lightgray" stroke="lightgray" points="192,-26.5 192,-44.5 265,-44.5 265,-26.5 192,-26.5"/>
<text text-anchor="middle" x="228.5" y="-33.3" font-family="Helvetica,sans-Serif" font-size="9.00">libncursesw6</text>
</g>
<!-- libreadline6&#45;&gt;libncursesw6 -->
<g id="edge4" class="edge"><title>libreadline6&#45;&gt;libncursesw6</title>
<path fill="none" stroke="black" d="M156.181,-35.5C164.196,-35.5 172.947,-35.5 181.486,-35.5"/>
<polygon fill="black" stroke="black" points="181.734,-39.0001 191.734,-35.5 181.734,-32.0001 181.734,-39.0001"/>
</g>
<!-- libncurses6 -->
<g id="node5" class="node"><title>libncurses6</title>
<polygon fill="lightgray" stroke="lightgray" points="301,-26.5 301,-44.5 367,-44.5 367,-26.5 301,-26.5"/>
<text text-anchor="middle" x="334" y="-33.3" font-family="Helvetica,sans-Serif" font-size="9.00">libncurses6</text>
</g>
<!-- libncursesw6&#45;&gt;libncurses6 -->
<g id="edge5" class="edge"><title>libncursesw6&#45;&gt;libncurses6</title>
<path fill="none" stroke="black" d="M265.119,-35.5C273.35,-35.5 282.186,-35.5 290.672,-35.5"/>
<polygon fill="black" stroke="black" points="290.786,-39.0001 300.786,-35.5 290.786,-32.0001 290.786,-39.0001"/>
</g>
<!-- libstdc6 -->
<g id="node6" class="node"><title>libstdc6</title>
<polygon fill="lightgray" stroke="lightgray" points="435.5,-52.5 435.5,-70.5 489.5,-70.5 489.5,-52.5 435.5,-52.5"/>
<text text-anchor="middle" x="462.5" y="-59.3" font-family="Helvetica,sans-Serif" font-size="9.00">libstdc6</text>
</g>
<!-- libncurses6&#45;&gt;libstdc6 -->
<g id="edge6" class="edge"><title>libncurses6&#45;&gt;libstdc6</title>
<path fill="none" stroke="black" d="M367.249,-42.1282C384.954,-45.7672 406.965,-50.2913 425.263,-54.052"/>
<polygon fill="black" stroke="black" points="424.77,-57.5238 435.27,-56.1088 426.179,-50.6672 424.77,-57.5238"/>
</g>
<!-- ncurses -->
<g id="node8" class="node"><title>ncurses</title>
<polygon fill="lightgray" stroke="lightgray" points="435.5,-26.5 435.5,-44.5 489.5,-44.5 489.5,-26.5 435.5,-26.5"/>
<text text-anchor="middle" x="462.5" y="-33.3" font-family="Helvetica,sans-Serif" font-size="9.00">ncurses</text>
</g>
<!-- libncurses6&#45;&gt;ncurses -->
<g id="edge8" class="edge"><title>libncurses6&#45;&gt;ncurses</title>
<path fill="none" stroke="black" d="M367.249,-35.5C384.954,-35.5 406.965,-35.5 425.263,-35.5"/>
<polygon fill="black" stroke="black" points="425.27,-39.0001 435.27,-35.5 425.27,-32.0001 425.27,-39.0001"/>
</g>
<!-- blackPanther_filesystem -->
<g id="node9" class="node"><title>blackPanther_filesystem</title>
<polygon fill="lightgray" stroke="lightgray" points="403,-0.5 403,-18.5 522,-18.5 522,-0.5 403,-0.5"/>
<text text-anchor="middle" x="462.5" y="-7.3" font-family="Helvetica,sans-Serif" font-size="9.00">blackPanther_filesystem</text>
</g>
<!-- libncurses6&#45;&gt;blackPanther_filesystem -->
<g id="edge9" class="edge"><title>libncurses6&#45;&gt;blackPanther_filesystem</title>
<path fill="none" stroke="black" d="M367.249,-28.8718C379.501,-26.3536 393.814,-23.4117 407.533,-20.5921"/>
<polygon fill="black" stroke="black" points="408.288,-24.0101 417.379,-18.5684 406.879,-17.1534 408.288,-24.0101"/>
</g>
<!-- libgcc1 -->
<g id="node7" class="node"><title>libgcc1</title>
<polygon fill="lightgray" stroke="lightgray" points="558,-52.5 558,-70.5 612,-70.5 612,-52.5 558,-52.5"/>
<text text-anchor="middle" x="585" y="-59.3" font-family="Helvetica,sans-Serif" font-size="9.00">libgcc1</text>
</g>
<!-- libstdc6&#45;&gt;libgcc1 -->
<g id="edge7" class="edge"><title>libstdc6&#45;&gt;libgcc1</title>
<path fill="none" stroke="black" d="M489.647,-61.5C506.622,-61.5 528.981,-61.5 547.674,-61.5"/>
<polygon fill="black" stroke="black" points="547.904,-65.0001 557.904,-61.5 547.904,-58.0001 547.904,-65.0001"/>
</g>
<!-- setup -->
<g id="node10" class="node"><title>setup</title>
<polygon fill="lightgray" stroke="lightgray" points="558,-0.5 558,-18.5 612,-18.5 612,-0.5 558,-0.5"/>
<text text-anchor="middle" x="585" y="-7.3" font-family="Helvetica,sans-Serif" font-size="9.00">setup</text>
</g>
<!-- blackPanther_filesystem&#45;&gt;setup -->
<g id="edge10" class="edge"><title>blackPanther_filesystem&#45;&gt;setup</title>
<path fill="none" stroke="black" d="M522.338,-9.5C530.978,-9.5 539.657,-9.5 547.664,-9.5"/>
<polygon fill="black" stroke="black" points="547.742,-13.0001 557.742,-9.5 547.742,-6.0001 547.742,-13.0001"/>
</g>
<!-- libpcre1 -->
<g id="node13" class="node"><title>libpcre1</title>
<polygon fill="lightgray" stroke="lightgray" points="307,-52.5 307,-70.5 361,-70.5 361,-52.5 307,-52.5"/>
<text text-anchor="middle" x="334" y="-59.3" font-family="Helvetica,sans-Serif" font-size="9.00">libpcre1</text>
</g>
<!-- grep&#45;&gt;libpcre1 -->
<g id="edge13" class="edge"><title>grep&#45;&gt;libpcre1</title>
<path fill="none" stroke="black" d="M255.617,-61.5C268.12,-61.5 283.294,-61.5 296.881,-61.5"/>
<polygon fill="black" stroke="black" points="296.891,-65.0001 306.891,-61.5 296.891,-58.0001 296.891,-65.0001"/>
</g>
</g>
</svg>
